<?xml version="1.0" encoding="UTF-8" standalone="no"?>
<!--MusicXML 1.1 file created by CapToMusic.py CapXML to MusicXML converter version 1.11-->
<!DOCTYPE score-partwise PUBLIC "-//Recordare//DTD MusicXML 1.1 Partwise//EN" "http://www.musicxml.org/dtds/partwise.dtd">
<score-partwise version="1.1">
	<identification>
		<encoding>
			<encoding-date>2007-01-06</encoding-date>
			<software>CapToMusic.py CapXML to MusicXML converter version 1.11</software>
			<encoding-description>Options: FinaleDolet33=1, ChordCaseMatters=1, ExportToSibelius=0</encoding-description>
		</encoding>
	</identification>
	<defaults>
		<scaling>
			<millimeters>1.78</millimeters>
			<tenths>10.0</tenths>
		</scaling>
		<page-layout>
			<page-height>1668</page-height>
			<page-width>1179</page-width>
			<page-margins type="both">
				<left-margin>56</left-margin>
				<right-margin>56</right-margin>
				<top-margin>56</top-margin>
				<bottom-margin>56</bottom-margin>
			</page-margins>
		</page-layout>
		<system-layout>
			<system-margins>
				<left-margin>0</left-margin>
				<right-margin>0</right-margin>
			</system-margins>
			<system-distance>0</system-distance>
		</system-layout>
	</defaults>
	<credit>
		<credit-words></credit-words>
	</credit>
	<part-list>
		<score-part id="P1">
			<part-name></part-name>
			<part-abbreviation></part-abbreviation>
			<score-instrument id="P1-I1">
				<instrument-name>Midi_1</instrument-name>
			</score-instrument>
			<midi-instrument id="P1-I1">
				<midi-channel>1</midi-channel>
				<midi-program>1</midi-program>
			</midi-instrument>
		</score-part>
	</part-list>
	<part id="P1">
		<measure number="1">
			<print>
				<system-layout>
					<system-margins>
						<left-margin>0</left-margin>
						<right-margin>0</right-margin>
					</system-margins>
					<top-system-distance>380</top-system-distance>
				</system-layout>
				<staff-layout number="1">
					<staff-distance>340</staff-distance>
				</staff-layout>
				<staff-layout number="2">
					<staff-distance>60</staff-distance>
				</staff-layout>
			</print>
			<attributes>
				<divisions>480</divisions>
				<key>
					<fifths>0</fifths>
					<mode>major</mode>
				</key>
				<time>
					<beats>4</beats>
					<beat-type>4</beat-type>
				</time>
				<staves>2</staves>
				<clef number="1">
					<sign>G</sign>
					<line>2</line>
				</clef>
			</attributes>
			<note>
				<pitch>
					<step>C</step>
					<octave>5</octave>
				</pitch>
				<duration>480</duration>
				<voice>1</voice>
				<type>quarter</type>
				<staff>1</staff>
			</note>
			<note>
				<pitch>
					<step>D</step>
					<octave>5</octave>
				</pitch>
				<duration>480</duration>
				<voice>1</voice>
				<type>quarter</type>
				<staff>1</staff>
			</note>
			<note>
				<pitch>
					<step>E</step>
					<octave>5</octave>
				</pitch>
				<duration>480</duration>
				<voice>1</voice>
				<type>quarter</type>
				<staff>1</staff>
			</note>
			<note>
				<pitch>
					<step>F</step>
					<octave>5</octave>
				</pitch>
				<duration>480</duration>
				<voice>1</voice>
				<type>quarter</type>
				<staff>1</staff>
			</note>
			<backup>
				<duration>1920</duration>
			</backup>
			<attributes>
				<staves>2</staves>
				<clef number="2">
					<sign>F</sign>
					<line>4</line>
				</clef>
			</attributes>
			<note>
				<pitch>
					<step>C</step>
					<octave>3</octave>
				</pitch>
				<duration>480</duration>
				<voice>2</voice>
				<type>quarter</type>
				<staff>2</staff>
			</note>
			<note>
				<pitch>
					<step>D</step>
					<octave>3</octave>
				</pitch>
				<duration>480</duration>
				<voice>2</voice>
				<type>quarter</type>
				<staff>2</staff>
			</note>
			<note>
				<pitch>
					<step>E</step>
					<octave>3</octave>
				</pitch>
				<duration>480</duration>
				<voice>2</voice>
				<type>quarter</type>
				<staff>2</staff>
			</note>
			<note>
				<pitch>
					<step>F</step>
					<octave>3</octave>
				</pitch>
				<duration>480</duration>
				<voice>2</voice>
				<type>quarter</type>
				<staff>2</staff>
			</note>
		</measure>
		<measure number="2">
			<note>
				<pitch>
					<step>E</step>
					<octave>5</octave>
				</pitch>
				<duration>960</duration>
				<voice>1</voice>
				<type>half</type>
				<staff>1</staff>
			</note>
			<note>
				<pitch>
					<step>D</step>
					<octave>5</octave>
				</pitch>
				<duration>480</duration>
				<voice>1</voice>
				<type>quarter</type>
				<staff>1</staff>
			</note>
			<note>
				<pitch>
					<step>C</step>
					<octave>5</octave>
				</pitch>
				<duration>480</duration>
				<voice>1</voice>
				<type>quarter</type>
				<staff>1</staff>
			</note>
			<backup>
				<duration>1920</duration>
			</backup>
			<note>
				<pitch>
					<step>E</step>
					<octave>3</octave>
				</pitch>
				<duration>960</duration>
				<voice>2</voice>
				<type>half</type>
				<staff>2</staff>
			</note>
			<note>
				<pitch>
					<step>D</step>
					<octave>3</octave>
				</pitch>
				<duration>480</duration>
				<voice>2</voice>
				<type>quarter</type>
				<staff>2</staff>
			</note>
			<note>
				<pitch>
					<step>C</step>
					<octave>3</octave>
				</pitch>
				<duration>480</duration>
				<voice>2</voice>
				<type>quarter</type>
				<staff>2</staff>
			</note>
		</measure>
		<measure number="3">
			<note>
				<pitch>
					<step>D</step>
					<octave>5</octave>
				</pitch>
				<duration>960</duration>
				<voice>1</voice>
				<type>half</type>
				<staff>1</staff>
			</note>
			<note>
				<pitch>
					<step>C</step>
					<octave>5</octave>
				</pitch>
				<duration>480</duration>
				<tie type="start"/>
				<voice>1</voice>
				<type>quarter</type>
				<staff>1</staff>
				<notations>
					<tied type="start"/>
				</notations>
			</note>
			<note>
				<pitch>
					<step>C</step>
					<octave>5</octave>
				</pitch>
				<duration>240</duration>
				<tie type="stop"/>
				<voice>1</voice>
				<type>eighth</type>
				<staff>1</staff>
				<notations>
					<tied type="stop"/>
				</notations>
			</note>
			<direction placement="above">
				<direction-type>
					<words default-x="-104" default-y="101" font-family="Tahoma" font-size="16">&quot;Moderato&quot;</words>
				</direction-type>
				<staff>1</staff>
			</direction>
			<direction placement="above">
				<direction-type>
					<words default-x="-320" default-y="170" font-family="Tahoma" font-size="23" font-weight="bold">Béla Bartók</words>
				</direction-type>
				<staff>1</staff>
			</direction>
			<note>
				<rest/>
				<duration>240</duration>
				<voice>1</voice>
				<type>eighth</type>
				<staff>1</staff>
			</note>
			<backup>
				<duration>1920</duration>
			</backup>
			<note>
				<pitch>
					<step>D</step>
					<octave>3</octave>
				</pitch>
				<duration>960</duration>
				<voice>2</voice>
				<type>half</type>
				<staff>2</staff>
			</note>
			<note>
				<pitch>
					<step>C</step>
					<octave>3</octave>
				</pitch>
				<duration>480</duration>
				<tie type="start"/>
				<voice>2</voice>
				<type>quarter</type>
				<staff>2</staff>
				<notations>
					<tied type="start"/>
				</notations>
			</note>
			<note>
				<pitch>
					<step>C</step>
					<octave>3</octave>
				</pitch>
				<duration>240</duration>
				<tie type="stop"/>
				<voice>2</voice>
				<type>eighth</type>
				<staff>2</staff>
				<notations>
					<tied type="stop"/>
				</notations>
			</note>
			<note>
				<rest/>
				<duration>240</duration>
				<voice>2</voice>
				<type>eighth</type>
				<staff>2</staff>
			</note>
		</measure>
		<measure number="4">
			<note>
				<pitch>
					<step>D</step>
					<octave>5</octave>
				</pitch>
				<duration>480</duration>
				<voice>1</voice>
				<type>quarter</type>
				<staff>1</staff>
			</note>
			<note>
				<pitch>
					<step>E</step>
					<octave>5</octave>
				</pitch>
				<duration>480</duration>
				<voice>1</voice>
				<type>quarter</type>
				<staff>1</staff>
			</note>
			<note>
				<pitch>
					<step>F</step>
					<octave>5</octave>
				</pitch>
				<duration>480</duration>
				<voice>1</voice>
				<type>quarter</type>
				<staff>1</staff>
			</note>
			<note>
				<pitch>
					<step>G</step>
					<octave>5</octave>
				</pitch>
				<duration>480</duration>
				<voice>1</voice>
				<type>quarter</type>
				<staff>1</staff>
			</note>
			<backup>
				<duration>1920</duration>
			</backup>
			<note>
				<pitch>
					<step>D</step>
					<octave>3</octave>
				</pitch>
				<duration>480</duration>
				<voice>2</voice>
				<type>quarter</type>
				<staff>2</staff>
			</note>
			<note>
				<pitch>
					<step>E</step>
					<octave>3</octave>
				</pitch>
				<duration>480</duration>
				<voice>2</voice>
				<type>quarter</type>
				<staff>2</staff>
			</note>
			<note>
				<pitch>
					<step>F</step>
					<octave>3</octave>
				</pitch>
				<duration>480</duration>
				<voice>2</voice>
				<type>quarter</type>
				<staff>2</staff>
			</note>
			<note>
				<pitch>
					<step>G</step>
					<octave>3</octave>
				</pitch>
				<duration>480</duration>
				<voice>2</voice>
				<type>quarter</type>
				<staff>2</staff>
			</note>
		</measure>
		<measure number="5">
			<note>
				<pitch>
					<step>F</step>
					<octave>5</octave>
				</pitch>
				<duration>960</duration>
				<voice>1</voice>
				<type>half</type>
				<staff>1</staff>
			</note>
			<note>
				<pitch>
					<step>E</step>
					<octave>5</octave>
				</pitch>
				<duration>480</duration>
				<voice>1</voice>
				<type>quarter</type>
				<staff>1</staff>
			</note>
			<note>
				<pitch>
					<step>D</step>
					<octave>5</octave>
				</pitch>
				<duration>480</duration>
				<voice>1</voice>
				<type>quarter</type>
				<staff>1</staff>
			</note>
			<backup>
				<duration>1920</duration>
			</backup>
			<note>
				<pitch>
					<step>F</step>
					<octave>3</octave>
				</pitch>
				<duration>960</duration>
				<voice>2</voice>
				<type>half</type>
				<staff>2</staff>
			</note>
			<note>
				<pitch>
					<step>E</step>
					<octave>3</octave>
				</pitch>
				<duration>480</duration>
				<voice>2</voice>
				<type>quarter</type>
				<staff>2</staff>
			</note>
			<note>
				<pitch>
					<step>D</step>
					<octave>3</octave>
				</pitch>
				<duration>480</duration>
				<voice>2</voice>
				<type>quarter</type>
				<staff>2</staff>
			</note>
		</measure>
		<measure number="6">
			<note>
				<pitch>
					<step>E</step>
					<octave>5</octave>
				</pitch>
				<duration>960</duration>
				<voice>1</voice>
				<type>half</type>
				<staff>1</staff>
			</note>
			<note>
				<pitch>
					<step>D</step>
					<octave>5</octave>
				</pitch>
				<duration>480</duration>
				<tie type="start"/>
				<voice>1</voice>
				<type>quarter</type>
				<staff>1</staff>
				<notations>
					<tied type="start"/>
				</notations>
			</note>
			<note>
				<pitch>
					<step>D</step>
					<octave>5</octave>
				</pitch>
				<duration>240</duration>
				<tie type="stop"/>
				<voice>1</voice>
				<type>eighth</type>
				<staff>1</staff>
				<notations>
					<tied type="stop"/>
				</notations>
			</note>
			<note>
				<rest/>
				<duration>240</duration>
				<voice>1</voice>
				<type>eighth</type>
				<staff>1</staff>
			</note>
			<backup>
				<duration>1920</duration>
			</backup>
			<note>
				<pitch>
					<step>E</step>
					<octave>3</octave>
				</pitch>
				<duration>960</duration>
				<voice>2</voice>
				<type>half</type>
				<staff>2</staff>
			</note>
			<note>
				<pitch>
					<step>D</step>
					<octave>3</octave>
				</pitch>
				<duration>480</duration>
				<tie type="start"/>
				<voice>2</voice>
				<type>quarter</type>
				<staff>2</staff>
				<notations>
					<tied type="start"/>
				</notations>
			</note>
			<note>
				<pitch>
					<step>D</step>
					<octave>3</octave>
				</pitch>
				<duration>240</duration>
				<tie type="stop"/>
				<voice>2</voice>
				<type>eighth</type>
				<staff>2</staff>
				<notations>
					<tied type="stop"/>
				</notations>
			</note>
			<note>
				<rest/>
				<duration>240</duration>
				<voice>2</voice>
				<type>eighth</type>
				<staff>2</staff>
			</note>
		</measure>
		<measure number="7">
			<print new-system="yes">
				<system-layout>
					<system-margins>
						<left-margin>30</left-margin>
						<right-margin>0</right-margin>
					</system-margins>
					<system-distance>160</system-distance>
				</system-layout>
				<staff-layout number="1">
					<staff-distance>140</staff-distance>
				</staff-layout>
				<staff-layout number="2">
					<staff-distance>60</staff-distance>
				</staff-layout>
			</print>
			<note>
				<pitch>
					<step>E</step>
					<octave>5</octave>
				</pitch>
				<duration>480</duration>
				<voice>1</voice>
				<type>quarter</type>
				<staff>1</staff>
			</note>
			<note>
				<pitch>
					<step>F</step>
					<octave>5</octave>
				</pitch>
				<duration>480</duration>
				<voice>1</voice>
				<type>quarter</type>
				<staff>1</staff>
			</note>
			<note>
				<pitch>
					<step>G</step>
					<octave>5</octave>
				</pitch>
				<duration>960</duration>
				<voice>1</voice>
				<type>half</type>
				<staff>1</staff>
			</note>
			<backup>
				<duration>1920</duration>
			</backup>
			<note>
				<pitch>
					<step>E</step>
					<octave>3</octave>
				</pitch>
				<duration>480</duration>
				<voice>2</voice>
				<type>quarter</type>
				<staff>2</staff>
			</note>
			<note>
				<pitch>
					<step>F</step>
					<octave>3</octave>
				</pitch>
				<duration>480</duration>
				<voice>2</voice>
				<type>quarter</type>
				<staff>2</staff>
			</note>
			<note>
				<pitch>
					<step>G</step>
					<octave>3</octave>
				</pitch>
				<duration>960</duration>
				<voice>2</voice>
				<type>half</type>
				<staff>2</staff>
			</note>
		</measure>
		<measure number="8">
			<note>
				<pitch>
					<step>F</step>
					<octave>5</octave>
				</pitch>
				<duration>480</duration>
				<voice>1</voice>
				<type>quarter</type>
				<staff>1</staff>
			</note>
			<note>
				<pitch>
					<step>E</step>
					<octave>5</octave>
				</pitch>
				<duration>480</duration>
				<voice>1</voice>
				<type>quarter</type>
				<staff>1</staff>
			</note>
			<note>
				<pitch>
					<step>D</step>
					<octave>5</octave>
				</pitch>
				<duration>480</duration>
				<voice>1</voice>
				<type>quarter</type>
				<staff>1</staff>
			</note>
			<note>
				<pitch>
					<step>C</step>
					<octave>5</octave>
				</pitch>
				<duration>480</duration>
				<voice>1</voice>
				<type>quarter</type>
				<staff>1</staff>
			</note>
			<backup>
				<duration>1920</duration>
			</backup>
			<note>
				<pitch>
					<step>F</step>
					<octave>3</octave>
				</pitch>
				<duration>480</duration>
				<voice>2</voice>
				<type>quarter</type>
				<staff>2</staff>
			</note>
			<note>
				<pitch>
					<step>E</step>
					<octave>3</octave>
				</pitch>
				<duration>480</duration>
				<voice>2</voice>
				<type>quarter</type>
				<staff>2</staff>
			</note>
			<note>
				<pitch>
					<step>D</step>
					<octave>3</octave>
				</pitch>
				<duration>480</duration>
				<voice>2</voice>
				<type>quarter</type>
				<staff>2</staff>
			</note>
			<note>
				<pitch>
					<step>C</step>
					<octave>3</octave>
				</pitch>
				<duration>480</duration>
				<voice>2</voice>
				<type>quarter</type>
				<staff>2</staff>
			</note>
		</measure>
		<measure number="9">
			<note>
				<pitch>
					<step>D</step>
					<octave>5</octave>
				</pitch>
				<duration>960</duration>
				<tie type="start"/>
				<voice>1</voice>
				<type>half</type>
				<staff>1</staff>
				<notations>
					<tied type="start"/>
				</notations>
			</note>
			<note>
				<pitch>
					<step>D</step>
					<octave>5</octave>
				</pitch>
				<duration>480</duration>
				<tie type="start"/>
				<voice>1</voice>
				<type>quarter</type>
				<staff>1</staff>
				<notations>
					<tied type="start"/>
				</notations>
			</note>
			<note>
				<pitch>
					<step>D</step>
					<octave>5</octave>
				</pitch>
				<duration>240</duration>
				<tie type="stop"/>
				<voice>1</voice>
				<type>eighth</type>
				<staff>1</staff>
				<notations>
					<tied type="stop"/>
				</notations>
			</note>
			<note>
				<rest/>
				<duration>240</duration>
				<voice>1</voice>
				<type>eighth</type>
				<staff>1</staff>
			</note>
			<backup>
				<duration>1920</duration>
			</backup>
			<note>
				<pitch>
					<step>D</step>
					<octave>3</octave>
				</pitch>
				<duration>960</duration>
				<tie type="start"/>
				<voice>2</voice>
				<type>half</type>
				<staff>2</staff>
				<notations>
					<tied type="start"/>
				</notations>
			</note>
			<note>
				<pitch>
					<step>D</step>
					<octave>3</octave>
				</pitch>
				<duration>480</duration>
				<tie type="start"/>
				<voice>2</voice>
				<type>quarter</type>
				<staff>2</staff>
				<notations>
					<tied type="start"/>
				</notations>
			</note>
			<note>
				<pitch>
					<step>D</step>
					<octave>3</octave>
				</pitch>
				<duration>240</duration>
				<tie type="stop"/>
				<voice>2</voice>
				<type>eighth</type>
				<staff>2</staff>
				<notations>
					<tied type="stop"/>
				</notations>
			</note>
			<note>
				<rest/>
				<duration>240</duration>
				<voice>2</voice>
				<type>eighth</type>
				<staff>2</staff>
			</note>
		</measure>
		<measure number="10">
			<note>
				<pitch>
					<step>E</step>
					<octave>5</octave>
				</pitch>
				<duration>960</duration>
				<voice>1</voice>
				<type>half</type>
				<staff>1</staff>
			</note>
			<note>
				<pitch>
					<step>D</step>
					<octave>5</octave>
				</pitch>
				<duration>480</duration>
				<voice>1</voice>
				<type>quarter</type>
				<staff>1</staff>
			</note>
			<note>
				<pitch>
					<step>E</step>
					<octave>5</octave>
				</pitch>
				<duration>480</duration>
				<voice>1</voice>
				<type>quarter</type>
				<staff>1</staff>
			</note>
			<backup>
				<duration>1920</duration>
			</backup>
			<note>
				<pitch>
					<step>E</step>
					<octave>3</octave>
				</pitch>
				<duration>960</duration>
				<voice>2</voice>
				<type>half</type>
				<staff>2</staff>
			</note>
			<note>
				<pitch>
					<step>D</step>
					<octave>3</octave>
				</pitch>
				<duration>480</duration>
				<voice>2</voice>
				<type>quarter</type>
				<staff>2</staff>
			</note>
			<note>
				<pitch>
					<step>E</step>
					<octave>3</octave>
				</pitch>
				<duration>480</duration>
				<voice>2</voice>
				<type>quarter</type>
				<staff>2</staff>
			</note>
		</measure>
		<measure number="11">
			<note>
				<pitch>
					<step>F</step>
					<octave>5</octave>
				</pitch>
				<duration>480</duration>
				<voice>1</voice>
				<type>quarter</type>
				<staff>1</staff>
			</note>
			<note>
				<pitch>
					<step>E</step>
					<octave>5</octave>
				</pitch>
				<duration>480</duration>
				<voice>1</voice>
				<type>quarter</type>
				<staff>1</staff>
			</note>
			<note>
				<pitch>
					<step>D</step>
					<octave>5</octave>
				</pitch>
				<duration>960</duration>
				<voice>1</voice>
				<type>half</type>
				<staff>1</staff>
			</note>
			<backup>
				<duration>1920</duration>
			</backup>
			<note>
				<pitch>
					<step>F</step>
					<octave>3</octave>
				</pitch>
				<duration>480</duration>
				<voice>2</voice>
				<type>quarter</type>
				<staff>2</staff>
			</note>
			<note>
				<pitch>
					<step>E</step>
					<octave>3</octave>
				</pitch>
				<duration>480</duration>
				<voice>2</voice>
				<type>quarter</type>
				<staff>2</staff>
			</note>
			<note>
				<pitch>
					<step>D</step>
					<octave>3</octave>
				</pitch>
				<duration>960</duration>
				<voice>2</voice>
				<type>half</type>
				<staff>2</staff>
			</note>
		</measure>
		<measure number="12">
			<note>
				<pitch>
					<step>C</step>
					<octave>5</octave>
				</pitch>
				<duration>1920</duration>
				<voice>1</voice>
				<type>whole</type>
				<staff>1</staff>
			</note>
			<backup>
				<duration>1920</duration>
			</backup>
			<note>
				<pitch>
					<step>C</step>
					<octave>3</octave>
				</pitch>
				<duration>1920</duration>
				<voice>2</voice>
				<type>whole</type>
				<staff>2</staff>
			</note>
			<barline>
				<bar-style>light-heavy</bar-style>
			</barline>
		</measure>
	</part>
</score-partwise>
