<?xml version="1.0" encoding="UTF-8" standalone="no"?>
<score-partwise version="2.0">
 <work>
  <work-title>Amazing Grace</work-title>
 </work>
 <identification>
  <creator type="composer">Lyrics: John Newton</creator>
  <creator type="poet"></creator>
  <rights> </rights>
  <encoding>
   <software>Neuratron NotateMe</software>
   <encoding-description>MusicXML 2.0</encoding-description>
  </encoding>
 </identification>
 <defaults>
  <scaling>
   <millimeters>60</millimeters>
   <tenths>400</tenths>
  </scaling>
  <page-layout>
   <page-height>1979</page-height>
   <page-width>1400</page-width>
  </page-layout>
 </defaults>
 <part-list>
  <score-part id="P1">
   <part-name>Voice</part-name>
   <part-abbreviation>Voi.</part-abbreviation>
   <score-instrument id="P1-I1">
    <instrument-name>Voice</instrument-name>
   </score-instrument>
   <midi-instrument id="P1-I1">
    <midi-channel>1</midi-channel>
    <midi-program>54</midi-program>
   </midi-instrument>
  </score-part>
  <score-part id="P2">
   <part-name>Drum Set</part-name>
   <part-abbreviation>Dru. Set</part-abbreviation>
   <score-instrument id="P2-I1">
    <instrument-name>Bass Drum 1</instrument-name>
   </score-instrument>
   <score-instrument id="P2-I2">
    <instrument-name>Low Tom</instrument-name>
   </score-instrument>
   <score-instrument id="P2-I3">
    <instrument-name>Electric Snare</instrument-name>
   </score-instrument>
   <score-instrument id="P2-I4">
    <instrument-name>Low-Mid Tom</instrument-name>
   </score-instrument>
   <score-instrument id="P2-I5">
    <instrument-name>Hi-Mid Tom</instrument-name>
   </score-instrument>
   <score-instrument id="P2-I6">
    <instrument-name>Ride Cymbal 1</instrument-name>
   </score-instrument>
   <score-instrument id="P2-I7">
    <instrument-name>Crash Cymbal 2</instrument-name>
   </score-instrument>
   <midi-instrument id="P2-I1">
    <midi-channel>10</midi-channel>
    <midi-program>1</midi-program>
    <midi-unpitched>36</midi-unpitched>
   </midi-instrument>
   <midi-instrument id="P2-I2">
    <midi-channel>10</midi-channel>
    <midi-program>1</midi-program>
    <midi-unpitched>45</midi-unpitched>
   </midi-instrument>
   <midi-instrument id="P2-I3">
    <midi-channel>10</midi-channel>
    <midi-program>1</midi-program>
    <midi-unpitched>40</midi-unpitched>
   </midi-instrument>
   <midi-instrument id="P2-I4">
    <midi-channel>10</midi-channel>
    <midi-program>1</midi-program>
    <midi-unpitched>47</midi-unpitched>
   </midi-instrument>
   <midi-instrument id="P2-I5">
    <midi-channel>10</midi-channel>
    <midi-program>1</midi-program>
    <midi-unpitched>48</midi-unpitched>
   </midi-instrument>
   <midi-instrument id="P2-I6">
    <midi-channel>10</midi-channel>
    <midi-program>1</midi-program>
    <midi-unpitched>51</midi-unpitched>
   </midi-instrument>
   <midi-instrument id="P2-I7">
    <midi-channel>10</midi-channel>
    <midi-program>1</midi-program>
    <midi-unpitched>57</midi-unpitched>
   </midi-instrument>
  </score-part>
 </part-list>
 <part id="P1">
  <measure number="1">
   <attributes>
    <divisions>2</divisions>
    <time>
     <beats>3</beats>
     <beat-type>4</beat-type>
    </time>
    <clef number="1">
     <sign>G</sign>
     <line>2</line>
    </clef>
   </attributes>
   <direction placement="above">
    <direction-type>
     <metronome relative-y="63" relative-x="0">
      <beat-unit>quarter</beat-unit>
      <per-minute>100</per-minute>
     </metronome>
    </direction-type>
   </direction>
   <note>
    <pitch>
     <step>G</step>
     <octave>4</octave>
    </pitch>
    <duration>1</duration>
    <voice>1</voice>
    <type>eighth</type>
    <stem>up</stem>
    <notations>
     <ornaments>
      <inverted-turn/>
     </ornaments>
    </notations>
    <lyric number="1">
     <syllabic>begin</syllabic>
     <text>A</text>
    </lyric>
   </note>
  </measure>
  <measure number="2">
   <harmony>
    <root>
     <root-step>C</root-step>
    </root>
    <kind>major</kind>
   </harmony>
   <note>
    <pitch>
     <step>C</step>
     <octave>5</octave>
    </pitch>
    <duration>4</duration>
    <voice>1</voice>
    <type>half</type>
    <stem>down</stem>
    <lyric number="1">
     <syllabic>middle</syllabic>
     <text>maz</text>
    </lyric>
   </note>
   <note>
    <pitch>
     <step>E</step>
     <octave>5</octave>
    </pitch>
    <duration>1</duration>
    <voice>1</voice>
    <type>eighth</type>
    <stem>down</stem>
    <beam number="1">begin</beam>
    <notations>
     <slur type="start" number="1"/>
    </notations>
    <lyric number="1">
     <syllabic>end</syllabic>
     <text>ing</text>
    </lyric>
   </note>
   <note>
    <pitch>
     <step>C</step>
     <octave>5</octave>
    </pitch>
    <duration>1</duration>
    <voice>1</voice>
    <type>eighth</type>
    <stem>down</stem>
    <beam number="1">end</beam>
    <notations>
     <slur type="stop" number="1"/>
    </notations>
   </note>
  </measure>
  <measure number="3">
   <note>
    <pitch>
     <step>E</step>
     <octave>5</octave>
    </pitch>
    <duration>4</duration>
    <voice>1</voice>
    <type>half</type>
    <stem>down</stem>
    <notations>
     <articulations>
      <tenuto/>
     </articulations>
    </notations>
    <lyric number="1">
     <syllabic>single</syllabic>
     <text>grace,</text>
    </lyric>
   </note>
   <note>
    <pitch>
     <step>D</step>
     <octave>5</octave>
    </pitch>
    <duration>2</duration>
    <voice>1</voice>
    <type>quarter</type>
    <stem>down</stem>
    <lyric number="1">
     <syllabic>single</syllabic>
     <text>how</text>
    </lyric>
   </note>
  </measure>
  <measure number="4">
   <harmony>
    <root>
     <root-step>F</root-step>
    </root>
    <kind>major</kind>
   </harmony>
   <note>
    <pitch>
     <step>C</step>
     <octave>5</octave>
    </pitch>
    <duration>4</duration>
    <voice>1</voice>
    <type>half</type>
    <stem>down</stem>
    <lyric number="1">
     <syllabic>single</syllabic>
     <text>sweet</text>
    </lyric>
   </note>
   <note>
    <pitch>
     <step>A</step>
     <octave>4</octave>
    </pitch>
    <duration>2</duration>
    <voice>1</voice>
    <type>quarter</type>
    <stem>up</stem>
    <lyric number="1">
     <syllabic>single</syllabic>
     <text>the</text>
    </lyric>
   </note>
  </measure>
  <measure number="5">
   <barline location="left">
    <bar-style>heavy-light</bar-style>
    <repeat direction="forward"/>
   </barline>
   <harmony>
    <root>
     <root-step>C</root-step>
    </root>
    <kind>major</kind>
   </harmony>
   <note>
    <pitch>
     <step>G</step>
     <octave>4</octave>
    </pitch>
    <duration>4</duration>
    <voice>1</voice>
    <type>half</type>
    <stem>up</stem>
    <lyric number="1">
     <syllabic>single</syllabic>
     <text>sound</text>
    </lyric>
    <lyric number="2">
     <syllabic>single</syllabic>
     <text>found,</text>
    </lyric>
   </note>
   <note>
    <pitch>
     <step>G</step>
     <octave>4</octave>
    </pitch>
    <duration>2</duration>
    <voice>1</voice>
    <type>quarter</type>
    <stem>up</stem>
    <lyric number="1">
     <syllabic>single</syllabic>
     <text>that</text>
    </lyric>
    <lyric number="2">
     <syllabic>single</syllabic>
     <text>was</text>
    </lyric>
   </note>
  </measure>
  <measure number="6">
   <print new-system="yes"/>
   <harmony>
    <root>
     <root-step>A</root-step>
    </root>
    <kind>minor</kind>
   </harmony>
   <note>
    <pitch>
     <step>C</step>
     <octave>5</octave>
    </pitch>
    <duration>4</duration>
    <voice>1</voice>
    <type>half</type>
    <stem>down</stem>
    <lyric number="1">
     <syllabic>single</syllabic>
     <text>saved</text>
    </lyric>
    <lyric number="2">
     <syllabic>single</syllabic>
     <text>blind</text>
    </lyric>
   </note>
   <note>
    <pitch>
     <step>E</step>
     <octave>5</octave>
    </pitch>
    <duration>1</duration>
    <voice>1</voice>
    <type>eighth</type>
    <stem>down</stem>
    <beam number="1">begin</beam>
    <notations>
     <slur type="start" number="1"/>
    </notations>
    <lyric number="1">
     <syllabic>single</syllabic>
     <text>a</text>
    </lyric>
    <lyric number="2">
     <syllabic>single</syllabic>
     <text>but</text>
    </lyric>
   </note>
   <note>
    <pitch>
     <step>C</step>
     <octave>5</octave>
    </pitch>
    <duration>1</duration>
    <voice>1</voice>
    <type>eighth</type>
    <stem>down</stem>
    <beam number="1">end</beam>
    <notations>
     <slur type="stop" number="1"/>
    </notations>
   </note>
  </measure>
  <measure number="7">
   <harmony>
    <root>
     <root-step>D</root-step>
    </root>
    <kind>dominant</kind>
   </harmony>
   <note>
    <pitch>
     <step>E</step>
     <octave>5</octave>
    </pitch>
    <duration>4</duration>
    <voice>1</voice>
    <type>half</type>
    <stem>down</stem>
    <notations>
     <ornaments>
      <trill-mark/>
     </ornaments>
    </notations>
    <lyric number="1">
     <syllabic>single</syllabic>
     <text>wretch</text>
    </lyric>
    <lyric number="2">
     <syllabic>single</syllabic>
     <text>now</text>
    </lyric>
   </note>
   <note>
    <pitch>
     <step>D</step>
     <octave>5</octave>
    </pitch>
    <duration>2</duration>
    <voice>1</voice>
    <type>quarter</type>
    <stem>down</stem>
    <notations>
     <ornaments>
      <inverted-mordent/>
     </ornaments>
    </notations>
    <lyric number="1">
     <syllabic>single</syllabic>
     <text>like</text>
    </lyric>
    <lyric number="2">
     <syllabic>single</syllabic>
     <text>I</text>
    </lyric>
   </note>
  </measure>
  <measure number="8">
   <barline location="left">
    <ending type="start" number="1"/>
   </barline>
   <harmony>
    <root>
     <root-step>G</root-step>
    </root>
    <kind>dominant</kind>
   </harmony>
   <note>
    <pitch>
     <step>G</step>
     <octave>5</octave>
    </pitch>
    <duration>6</duration>
    <tie type="start"/>
    <voice>1</voice>
    <type>half</type>
    <dot/>
    <stem>down</stem>
    <notations>
     <articulations>
      <accent/>
     </articulations>
     <tied type="start"/>
    </notations>
    <lyric number="1">
     <syllabic>single</syllabic>
     <text>me</text>
    </lyric>
   </note>
  </measure>
  <measure number="9">
   <note>
    <pitch>
     <step>G</step>
     <octave>5</octave>
    </pitch>
    <duration>4</duration>
    <tie type="stop"/>
    <voice>1</voice>
    <type>half</type>
    <stem>down</stem>
    <notations>
     <tied type="stop"/>
    </notations>
   </note>
   <note>
    <pitch>
     <step>E</step>
     <octave>5</octave>
    </pitch>
    <duration>2</duration>
    <voice>1</voice>
    <type>quarter</type>
    <stem>down</stem>
    <lyric number="1">
     <syllabic>single</syllabic>
     <text>I</text>
    </lyric>
   </note>
  </measure>
  <measure number="10">
   <harmony>
    <root>
     <root-step>C</root-step>
    </root>
    <kind>major</kind>
   </harmony>
   <note>
    <pitch>
     <step>G</step>
     <octave>5</octave>
    </pitch>
    <duration>3</duration>
    <voice>1</voice>
    <type>quarter</type>
    <dot/>
    <stem>down</stem>
    <notations>
     <articulations>
      <accent/>
     </articulations>
     <slur type="start" number="1"/>
    </notations>
    <lyric number="1">
     <syllabic>single</syllabic>
     <text>once</text>
    </lyric>
   </note>
   <note>
    <pitch>
     <step>E</step>
     <octave>5</octave>
    </pitch>
    <duration>1</duration>
    <voice>1</voice>
    <type>eighth</type>
    <stem>down</stem>
    <notations>
     <slur type="stop" number="1"/>
    </notations>
   </note>
   <note>
    <pitch>
     <step>G</step>
     <octave>5</octave>
    </pitch>
    <duration>1</duration>
    <voice>1</voice>
    <type>eighth</type>
    <stem>down</stem>
    <beam number="1">begin</beam>
    <notations>
     <slur type="start" number="1"/>
    </notations>
    <lyric number="1">
     <syllabic>single</syllabic>
     <text>was</text>
    </lyric>
   </note>
   <note>
    <pitch>
     <step>E</step>
     <octave>5</octave>
    </pitch>
    <duration>1</duration>
    <voice>1</voice>
    <type>eighth</type>
    <stem>down</stem>
    <beam number="1">end</beam>
    <notations>
     <slur type="stop" number="1"/>
    </notations>
   </note>
  </measure>
  <measure number="11">
   <print new-system="yes"/>
   <note>
    <pitch>
     <step>C</step>
     <octave>5</octave>
    </pitch>
    <duration>4</duration>
    <voice>1</voice>
    <type>half</type>
    <stem>down</stem>
    <lyric number="1">
     <syllabic>single</syllabic>
     <text>lost,</text>
    </lyric>
   </note>
   <note>
    <pitch>
     <step>G</step>
     <octave>4</octave>
    </pitch>
    <duration>2</duration>
    <voice>1</voice>
    <type>quarter</type>
    <stem>up</stem>
    <lyric number="1">
     <syllabic>single</syllabic>
     <text>but</text>
    </lyric>
   </note>
  </measure>
  <measure number="12">
   <harmony>
    <root>
     <root-step>F</root-step>
    </root>
    <kind>major</kind>
   </harmony>
   <note>
    <pitch>
     <step>A</step>
     <octave>4</octave>
    </pitch>
    <duration>3</duration>
    <voice>1</voice>
    <type>quarter</type>
    <dot/>
    <stem>up</stem>
    <notations>
     <slur type="start" number="1"/>
    </notations>
    <lyric number="1">
     <syllabic>single</syllabic>
     <text>now</text>
    </lyric>
   </note>
   <note>
    <pitch>
     <step>C</step>
     <octave>5</octave>
    </pitch>
    <duration>1</duration>
    <voice>1</voice>
    <type>eighth</type>
    <stem>down</stem>
    <notations>
     <slur type="stop" number="1"/>
    </notations>
   </note>
   <note>
    <pitch>
     <step>C</step>
     <octave>5</octave>
    </pitch>
    <duration>1</duration>
    <voice>1</voice>
    <type>eighth</type>
    <stem>down</stem>
    <beam number="1">begin</beam>
    <notations>
     <slur type="start" number="1"/>
    </notations>
    <lyric number="1">
     <syllabic>single</syllabic>
     <text>am</text>
    </lyric>
   </note>
   <note>
    <pitch>
     <step>A</step>
     <octave>4</octave>
    </pitch>
    <duration>1</duration>
    <voice>1</voice>
    <type>eighth</type>
    <stem>down</stem>
    <beam number="1">end</beam>
    <notations>
     <slur type="stop" number="1"/>
    </notations>
   </note>
   <barline location="right">
    <bar-style>light-heavy</bar-style>
    <ending type="stop" number="1"/>
    <repeat direction="backward"/>
   </barline>
  </measure>
  <measure number="13">
   <barline location="left">
    <ending type="start" number="2"/>
   </barline>
   <harmony>
    <root>
     <root-step>C</root-step>
    </root>
    <kind>major</kind>
   </harmony>
   <note>
    <pitch>
     <step>C</step>
     <octave>5</octave>
    </pitch>
    <duration>6</duration>
    <voice>1</voice>
    <type>half</type>
    <dot/>
    <stem>down</stem>
    <notations>
     <fermata/>
    </notations>
    <lyric number="1">
     <syllabic>single</syllabic>
     <text>see.</text>
    </lyric>
   </note>
   <barline location="right">
    <bar-style>light-heavy</bar-style>
    <ending type="discontinue" number="2"/>
   </barline>
  </measure>
 </part>
 <part id="P2">
  <measure number="1">
   <attributes>
    <divisions>4</divisions>
    <time>
     <beats>3</beats>
     <beat-type>4</beat-type>
    </time>
    <clef number="1">
     <sign>percussion</sign>
    </clef>
   </attributes>
   <note>
    <rest/>
    <duration>2</duration>
    <voice>1</voice>
    <type>eighth</type>
   </note>
  </measure>
  <measure number="2">
   <note>
    <unpitched>
     <display-step>F</display-step>
     <display-octave>5</display-octave>
    </unpitched>
    <duration>2</duration>
    <instrument id="P2-I6"/>
    <voice>1</voice>
    <type>eighth</type>
    <stem>up</stem>
    <notehead>x</notehead>
    <beam number="1">begin</beam>
   </note>
   <backup>
    <duration>2</duration>
   </backup>
   <note>
    <unpitched>
     <display-step>F</display-step>
     <display-octave>4</display-octave>
    </unpitched>
    <duration>4</duration>
    <instrument id="P2-I1"/>
    <voice>2</voice>
    <type>quarter</type>
    <stem>down</stem>
   </note>
   <backup>
    <duration>2</duration>
   </backup>
   <note>
    <unpitched>
     <display-step>F</display-step>
     <display-octave>5</display-octave>
    </unpitched>
    <duration>2</duration>
    <instrument id="P2-I6"/>
    <voice>1</voice>
    <type>eighth</type>
    <stem>up</stem>
    <notehead>x</notehead>
    <beam number="1">end</beam>
   </note>
   <note>
    <unpitched>
     <display-step>F</display-step>
     <display-octave>5</display-octave>
    </unpitched>
    <duration>2</duration>
    <instrument id="P2-I6"/>
    <voice>1</voice>
    <type>eighth</type>
    <stem>up</stem>
    <notehead>x</notehead>
    <beam number="1">begin</beam>
   </note>
   <backup>
    <duration>2</duration>
   </backup>
   <note>
    <unpitched>
     <display-step>C</display-step>
     <display-octave>5</display-octave>
    </unpitched>
    <duration>6</duration>
    <instrument id="P2-I3"/>
    <voice>2</voice>
    <type>quarter</type>
    <dot/>
    <stem>down</stem>
   </note>
   <backup>
    <duration>4</duration>
   </backup>
   <note>
    <unpitched>
     <display-step>F</display-step>
     <display-octave>5</display-octave>
    </unpitched>
    <duration>2</duration>
    <instrument id="P2-I6"/>
    <voice>1</voice>
    <type>eighth</type>
    <stem>up</stem>
    <notehead>x</notehead>
    <beam number="1">end</beam>
   </note>
   <note>
    <unpitched>
     <display-step>F</display-step>
     <display-octave>5</display-octave>
    </unpitched>
    <duration>2</duration>
    <instrument id="P2-I6"/>
    <voice>1</voice>
    <type>eighth</type>
    <stem>up</stem>
    <notehead>x</notehead>
    <beam number="1">begin</beam>
   </note>
   <note>
    <unpitched>
     <display-step>F</display-step>
     <display-octave>5</display-octave>
    </unpitched>
    <duration>2</duration>
    <instrument id="P2-I6"/>
    <voice>1</voice>
    <type>eighth</type>
    <stem>up</stem>
    <notehead>x</notehead>
    <beam number="1">end</beam>
   </note>
   <backup>
    <duration>2</duration>
   </backup>
   <note>
    <unpitched>
     <display-step>C</display-step>
     <display-octave>5</display-octave>
    </unpitched>
    <duration>2</duration>
    <instrument id="P2-I3"/>
    <voice>2</voice>
    <type>eighth</type>
    <stem>down</stem>
   </note>
  </measure>
  <measure number="3">
   <note>
    <unpitched>
     <display-step>F</display-step>
     <display-octave>5</display-octave>
    </unpitched>
    <duration>2</duration>
    <instrument id="P2-I6"/>
    <voice>1</voice>
    <type>eighth</type>
    <stem>up</stem>
    <notehead>x</notehead>
    <beam number="1">begin</beam>
   </note>
   <backup>
    <duration>2</duration>
   </backup>
   <note>
    <unpitched>
     <display-step>F</display-step>
     <display-octave>4</display-octave>
    </unpitched>
    <duration>4</duration>
    <instrument id="P2-I1"/>
    <voice>2</voice>
    <type>quarter</type>
    <stem>down</stem>
   </note>
   <backup>
    <duration>2</duration>
   </backup>
   <note>
    <unpitched>
     <display-step>F</display-step>
     <display-octave>5</display-octave>
    </unpitched>
    <duration>2</duration>
    <instrument id="P2-I6"/>
    <voice>1</voice>
    <type>eighth</type>
    <stem>up</stem>
    <notehead>x</notehead>
    <beam number="1">end</beam>
   </note>
   <note>
    <unpitched>
     <display-step>F</display-step>
     <display-octave>5</display-octave>
    </unpitched>
    <duration>2</duration>
    <instrument id="P2-I6"/>
    <voice>1</voice>
    <type>eighth</type>
    <stem>up</stem>
    <notehead>x</notehead>
    <beam number="1">begin</beam>
   </note>
   <backup>
    <duration>2</duration>
   </backup>
   <note>
    <unpitched>
     <display-step>C</display-step>
     <display-octave>5</display-octave>
    </unpitched>
    <duration>6</duration>
    <instrument id="P2-I3"/>
    <voice>2</voice>
    <type>quarter</type>
    <dot/>
    <stem>down</stem>
   </note>
   <backup>
    <duration>4</duration>
   </backup>
   <note>
    <unpitched>
     <display-step>F</display-step>
     <display-octave>5</display-octave>
    </unpitched>
    <duration>2</duration>
    <instrument id="P2-I6"/>
    <voice>1</voice>
    <type>eighth</type>
    <stem>up</stem>
    <notehead>x</notehead>
    <beam number="1">end</beam>
   </note>
   <note>
    <unpitched>
     <display-step>F</display-step>
     <display-octave>5</display-octave>
    </unpitched>
    <duration>2</duration>
    <instrument id="P2-I6"/>
    <voice>1</voice>
    <type>eighth</type>
    <stem>up</stem>
    <notehead>x</notehead>
    <beam number="1">begin</beam>
   </note>
   <note>
    <unpitched>
     <display-step>F</display-step>
     <display-octave>5</display-octave>
    </unpitched>
    <duration>2</duration>
    <instrument id="P2-I6"/>
    <voice>1</voice>
    <type>eighth</type>
    <stem>up</stem>
    <notehead>x</notehead>
    <beam number="1">end</beam>
   </note>
   <backup>
    <duration>2</duration>
   </backup>
   <note>
    <unpitched>
     <display-step>C</display-step>
     <display-octave>5</display-octave>
    </unpitched>
    <duration>2</duration>
    <instrument id="P2-I3"/>
    <voice>2</voice>
    <type>eighth</type>
    <stem>down</stem>
   </note>
  </measure>
  <measure number="4">
   <note>
    <unpitched>
     <display-step>F</display-step>
     <display-octave>5</display-octave>
    </unpitched>
    <duration>2</duration>
    <instrument id="P2-I6"/>
    <voice>1</voice>
    <type>eighth</type>
    <stem>up</stem>
    <notehead>x</notehead>
    <beam number="1">begin</beam>
   </note>
   <backup>
    <duration>2</duration>
   </backup>
   <note>
    <unpitched>
     <display-step>F</display-step>
     <display-octave>4</display-octave>
    </unpitched>
    <duration>4</duration>
    <instrument id="P2-I1"/>
    <voice>2</voice>
    <type>quarter</type>
    <stem>down</stem>
   </note>
   <backup>
    <duration>2</duration>
   </backup>
   <note>
    <unpitched>
     <display-step>F</display-step>
     <display-octave>5</display-octave>
    </unpitched>
    <duration>2</duration>
    <instrument id="P2-I6"/>
    <voice>1</voice>
    <type>eighth</type>
    <stem>up</stem>
    <notehead>x</notehead>
    <beam number="1">end</beam>
   </note>
   <note>
    <unpitched>
     <display-step>F</display-step>
     <display-octave>5</display-octave>
    </unpitched>
    <duration>2</duration>
    <instrument id="P2-I6"/>
    <voice>1</voice>
    <type>eighth</type>
    <stem>up</stem>
    <notehead>x</notehead>
    <beam number="1">begin</beam>
   </note>
   <backup>
    <duration>2</duration>
   </backup>
   <note>
    <unpitched>
     <display-step>C</display-step>
     <display-octave>5</display-octave>
    </unpitched>
    <duration>4</duration>
    <instrument id="P2-I3"/>
    <voice>2</voice>
    <type>quarter</type>
    <stem>down</stem>
   </note>
   <backup>
    <duration>2</duration>
   </backup>
   <note>
    <unpitched>
     <display-step>F</display-step>
     <display-octave>5</display-octave>
    </unpitched>
    <duration>2</duration>
    <instrument id="P2-I6"/>
    <voice>1</voice>
    <type>eighth</type>
    <stem>up</stem>
    <notehead>x</notehead>
    <beam number="1">end</beam>
   </note>
   <note>
    <unpitched>
     <display-step>F</display-step>
     <display-octave>5</display-octave>
    </unpitched>
    <duration>2</duration>
    <instrument id="P2-I6"/>
    <voice>1</voice>
    <type>eighth</type>
    <stem>up</stem>
    <notehead>x</notehead>
    <beam number="1">begin</beam>
   </note>
   <backup>
    <duration>2</duration>
   </backup>
   <note>
    <unpitched>
     <display-step>C</display-step>
     <display-octave>5</display-octave>
    </unpitched>
    <duration>2</duration>
    <instrument id="P2-I3"/>
    <voice>2</voice>
    <type>eighth</type>
    <stem>down</stem>
    <beam number="1">begin</beam>
   </note>
   <note>
    <unpitched>
     <display-step>F</display-step>
     <display-octave>5</display-octave>
    </unpitched>
    <duration>2</duration>
    <instrument id="P2-I6"/>
    <voice>1</voice>
    <type>eighth</type>
    <stem>up</stem>
    <notehead>x</notehead>
    <beam number="1">end</beam>
   </note>
   <backup>
    <duration>2</duration>
   </backup>
   <note>
    <unpitched>
     <display-step>C</display-step>
     <display-octave>5</display-octave>
    </unpitched>
    <duration>2</duration>
    <instrument id="P2-I3"/>
    <voice>2</voice>
    <type>eighth</type>
    <stem>down</stem>
    <beam number="1">end</beam>
   </note>
  </measure>
  <measure number="5">
   <barline location="left">
    <bar-style>heavy-light</bar-style>
    <repeat direction="forward"/>
   </barline>
   <note>
    <unpitched>
     <display-step>F</display-step>
     <display-octave>5</display-octave>
    </unpitched>
    <duration>2</duration>
    <instrument id="P2-I6"/>
    <voice>1</voice>
    <type>eighth</type>
    <stem>up</stem>
    <notehead>x</notehead>
    <beam number="1">begin</beam>
   </note>
   <backup>
    <duration>2</duration>
   </backup>
   <note>
    <unpitched>
     <display-step>F</display-step>
     <display-octave>4</display-octave>
    </unpitched>
    <duration>4</duration>
    <instrument id="P2-I1"/>
    <voice>2</voice>
    <type>quarter</type>
    <stem>down</stem>
   </note>
   <backup>
    <duration>2</duration>
   </backup>
   <note>
    <unpitched>
     <display-step>F</display-step>
     <display-octave>5</display-octave>
    </unpitched>
    <duration>2</duration>
    <instrument id="P2-I6"/>
    <voice>1</voice>
    <type>eighth</type>
    <stem>up</stem>
    <notehead>x</notehead>
    <beam number="1">end</beam>
   </note>
   <note>
    <unpitched>
     <display-step>F</display-step>
     <display-octave>5</display-octave>
    </unpitched>
    <duration>2</duration>
    <instrument id="P2-I6"/>
    <voice>1</voice>
    <type>eighth</type>
    <stem>up</stem>
    <notehead>x</notehead>
    <beam number="1">begin</beam>
   </note>
   <backup>
    <duration>2</duration>
   </backup>
   <note>
    <unpitched>
     <display-step>C</display-step>
     <display-octave>5</display-octave>
    </unpitched>
    <duration>6</duration>
    <instrument id="P2-I3"/>
    <voice>2</voice>
    <type>quarter</type>
    <dot/>
    <stem>down</stem>
   </note>
   <backup>
    <duration>4</duration>
   </backup>
   <note>
    <unpitched>
     <display-step>F</display-step>
     <display-octave>5</display-octave>
    </unpitched>
    <duration>2</duration>
    <instrument id="P2-I6"/>
    <voice>1</voice>
    <type>eighth</type>
    <stem>up</stem>
    <notehead>x</notehead>
    <beam number="1">end</beam>
   </note>
   <note>
    <unpitched>
     <display-step>F</display-step>
     <display-octave>5</display-octave>
    </unpitched>
    <duration>2</duration>
    <instrument id="P2-I6"/>
    <voice>1</voice>
    <type>eighth</type>
    <stem>up</stem>
    <notehead>x</notehead>
    <beam number="1">begin</beam>
   </note>
   <note>
    <unpitched>
     <display-step>F</display-step>
     <display-octave>5</display-octave>
    </unpitched>
    <duration>2</duration>
    <instrument id="P2-I6"/>
    <voice>1</voice>
    <type>eighth</type>
    <stem>up</stem>
    <notehead>x</notehead>
    <beam number="1">end</beam>
   </note>
   <backup>
    <duration>2</duration>
   </backup>
   <note>
    <unpitched>
     <display-step>C</display-step>
     <display-octave>5</display-octave>
    </unpitched>
    <duration>2</duration>
    <instrument id="P2-I3"/>
    <voice>2</voice>
    <type>eighth</type>
    <stem>down</stem>
   </note>
  </measure>
  <measure number="6">
   <print new-system="yes"/>
   <note>
    <unpitched>
     <display-step>F</display-step>
     <display-octave>5</display-octave>
    </unpitched>
    <duration>2</duration>
    <instrument id="P2-I6"/>
    <voice>1</voice>
    <type>eighth</type>
    <stem>up</stem>
    <notehead>x</notehead>
    <beam number="1">begin</beam>
   </note>
   <backup>
    <duration>2</duration>
   </backup>
   <note>
    <unpitched>
     <display-step>F</display-step>
     <display-octave>4</display-octave>
    </unpitched>
    <duration>4</duration>
    <instrument id="P2-I1"/>
    <voice>2</voice>
    <type>quarter</type>
    <stem>down</stem>
   </note>
   <backup>
    <duration>2</duration>
   </backup>
   <note>
    <unpitched>
     <display-step>F</display-step>
     <display-octave>5</display-octave>
    </unpitched>
    <duration>2</duration>
    <instrument id="P2-I6"/>
    <voice>1</voice>
    <type>eighth</type>
    <stem>up</stem>
    <notehead>x</notehead>
    <beam number="1">end</beam>
   </note>
   <note>
    <unpitched>
     <display-step>F</display-step>
     <display-octave>5</display-octave>
    </unpitched>
    <duration>2</duration>
    <instrument id="P2-I6"/>
    <voice>1</voice>
    <type>eighth</type>
    <stem>up</stem>
    <notehead>x</notehead>
    <beam number="1">begin</beam>
   </note>
   <backup>
    <duration>2</duration>
   </backup>
   <note>
    <unpitched>
     <display-step>C</display-step>
     <display-octave>5</display-octave>
    </unpitched>
    <duration>6</duration>
    <instrument id="P2-I3"/>
    <voice>2</voice>
    <type>quarter</type>
    <dot/>
    <stem>down</stem>
   </note>
   <backup>
    <duration>4</duration>
   </backup>
   <note>
    <unpitched>
     <display-step>F</display-step>
     <display-octave>5</display-octave>
    </unpitched>
    <duration>2</duration>
    <instrument id="P2-I6"/>
    <voice>1</voice>
    <type>eighth</type>
    <stem>up</stem>
    <notehead>x</notehead>
    <beam number="1">end</beam>
   </note>
   <note>
    <unpitched>
     <display-step>F</display-step>
     <display-octave>5</display-octave>
    </unpitched>
    <duration>2</duration>
    <instrument id="P2-I6"/>
    <voice>1</voice>
    <type>eighth</type>
    <stem>up</stem>
    <notehead>x</notehead>
    <beam number="1">begin</beam>
   </note>
   <note>
    <unpitched>
     <display-step>F</display-step>
     <display-octave>5</display-octave>
    </unpitched>
    <duration>2</duration>
    <instrument id="P2-I6"/>
    <voice>1</voice>
    <type>eighth</type>
    <stem>up</stem>
    <notehead>x</notehead>
    <beam number="1">end</beam>
   </note>
   <backup>
    <duration>2</duration>
   </backup>
   <note>
    <unpitched>
     <display-step>C</display-step>
     <display-octave>5</display-octave>
    </unpitched>
    <duration>2</duration>
    <instrument id="P2-I3"/>
    <voice>2</voice>
    <type>eighth</type>
    <stem>down</stem>
   </note>
  </measure>
  <measure number="7">
   <note>
    <unpitched>
     <display-step>F</display-step>
     <display-octave>5</display-octave>
    </unpitched>
    <duration>2</duration>
    <instrument id="P2-I6"/>
    <voice>1</voice>
    <type>eighth</type>
    <stem>up</stem>
    <notehead>x</notehead>
    <beam number="1">begin</beam>
   </note>
   <backup>
    <duration>2</duration>
   </backup>
   <note>
    <unpitched>
     <display-step>F</display-step>
     <display-octave>4</display-octave>
    </unpitched>
    <duration>4</duration>
    <instrument id="P2-I1"/>
    <voice>2</voice>
    <type>quarter</type>
    <stem>down</stem>
   </note>
   <backup>
    <duration>2</duration>
   </backup>
   <note>
    <unpitched>
     <display-step>F</display-step>
     <display-octave>5</display-octave>
    </unpitched>
    <duration>2</duration>
    <instrument id="P2-I6"/>
    <voice>1</voice>
    <type>eighth</type>
    <stem>up</stem>
    <notehead>x</notehead>
    <beam number="1">end</beam>
   </note>
   <note>
    <unpitched>
     <display-step>F</display-step>
     <display-octave>5</display-octave>
    </unpitched>
    <duration>2</duration>
    <instrument id="P2-I6"/>
    <voice>1</voice>
    <type>eighth</type>
    <stem>up</stem>
    <notehead>x</notehead>
    <beam number="1">begin</beam>
   </note>
   <backup>
    <duration>2</duration>
   </backup>
   <note>
    <unpitched>
     <display-step>C</display-step>
     <display-octave>5</display-octave>
    </unpitched>
    <duration>4</duration>
    <instrument id="P2-I3"/>
    <voice>2</voice>
    <type>quarter</type>
    <stem>down</stem>
   </note>
   <backup>
    <duration>2</duration>
   </backup>
   <note>
    <unpitched>
     <display-step>F</display-step>
     <display-octave>5</display-octave>
    </unpitched>
    <duration>2</duration>
    <instrument id="P2-I6"/>
    <voice>1</voice>
    <type>eighth</type>
    <stem>up</stem>
    <notehead>x</notehead>
    <beam number="1">end</beam>
   </note>
   <note>
    <unpitched>
     <display-step>E</display-step>
     <display-octave>5</display-octave>
    </unpitched>
    <duration>1</duration>
    <instrument id="P2-I5"/>
    <voice>2</voice>
    <type>16th</type>
    <stem>down</stem>
    <beam number="1">begin</beam>
    <beam number="2">begin</beam>
   </note>
   <note>
    <unpitched>
     <display-step>E</display-step>
     <display-octave>5</display-octave>
    </unpitched>
    <duration>1</duration>
    <instrument id="P2-I5"/>
    <voice>2</voice>
    <type>16th</type>
    <stem>down</stem>
    <beam number="1">continue</beam>
    <beam number="2">continue</beam>
   </note>
   <note>
    <unpitched>
     <display-step>D</display-step>
     <display-octave>5</display-octave>
    </unpitched>
    <duration>1</duration>
    <instrument id="P2-I4"/>
    <voice>2</voice>
    <type>16th</type>
    <stem>down</stem>
    <beam number="1">continue</beam>
    <beam number="2">continue</beam>
   </note>
   <note>
    <unpitched>
     <display-step>B</display-step>
     <display-octave>4</display-octave>
    </unpitched>
    <duration>1</duration>
    <instrument id="P2-I2"/>
    <voice>2</voice>
    <type>16th</type>
    <stem>down</stem>
    <beam number="1">end</beam>
    <beam number="2">end</beam>
   </note>
  </measure>
  <measure number="8">
   <note>
    <unpitched>
     <display-step>A</display-step>
     <display-octave>5</display-octave>
    </unpitched>
    <duration>4</duration>
    <instrument id="P2-I7"/>
    <voice>1</voice>
    <type>quarter</type>
    <stem>up</stem>
    <notehead>x</notehead>
   </note>
   <backup>
    <duration>4</duration>
   </backup>
   <note>
    <unpitched>
     <display-step>F</display-step>
     <display-octave>4</display-octave>
    </unpitched>
    <duration>4</duration>
    <instrument id="P2-I1"/>
    <voice>2</voice>
    <type>quarter</type>
    <stem>down</stem>
   </note>
   <note>
    <unpitched>
     <display-step>F</display-step>
     <display-octave>5</display-octave>
    </unpitched>
    <duration>2</duration>
    <instrument id="P2-I6"/>
    <voice>1</voice>
    <type>eighth</type>
    <stem>up</stem>
    <notehead>x</notehead>
    <beam number="1">begin</beam>
   </note>
   <backup>
    <duration>2</duration>
   </backup>
   <note>
    <unpitched>
     <display-step>C</display-step>
     <display-octave>5</display-octave>
    </unpitched>
    <duration>6</duration>
    <instrument id="P2-I3"/>
    <voice>2</voice>
    <type>quarter</type>
    <dot/>
    <stem>down</stem>
   </note>
   <backup>
    <duration>4</duration>
   </backup>
   <note>
    <unpitched>
     <display-step>F</display-step>
     <display-octave>5</display-octave>
    </unpitched>
    <duration>2</duration>
    <instrument id="P2-I6"/>
    <voice>1</voice>
    <type>eighth</type>
    <stem>up</stem>
    <notehead>x</notehead>
    <beam number="1">end</beam>
   </note>
   <note>
    <unpitched>
     <display-step>F</display-step>
     <display-octave>5</display-octave>
    </unpitched>
    <duration>2</duration>
    <instrument id="P2-I6"/>
    <voice>1</voice>
    <type>eighth</type>
    <stem>up</stem>
    <notehead>x</notehead>
    <beam number="1">begin</beam>
   </note>
   <note>
    <unpitched>
     <display-step>F</display-step>
     <display-octave>5</display-octave>
    </unpitched>
    <duration>2</duration>
    <instrument id="P2-I6"/>
    <voice>1</voice>
    <type>eighth</type>
    <stem>up</stem>
    <notehead>x</notehead>
    <beam number="1">end</beam>
   </note>
   <backup>
    <duration>2</duration>
   </backup>
   <note>
    <unpitched>
     <display-step>C</display-step>
     <display-octave>5</display-octave>
    </unpitched>
    <duration>2</duration>
    <instrument id="P2-I3"/>
    <voice>2</voice>
    <type>eighth</type>
    <stem>down</stem>
   </note>
  </measure>
  <measure number="9">
   <note>
    <unpitched>
     <display-step>F</display-step>
     <display-octave>5</display-octave>
    </unpitched>
    <duration>2</duration>
    <instrument id="P2-I6"/>
    <voice>1</voice>
    <type>eighth</type>
    <stem>up</stem>
    <notehead>x</notehead>
    <beam number="1">begin</beam>
   </note>
   <backup>
    <duration>2</duration>
   </backup>
   <note>
    <unpitched>
     <display-step>F</display-step>
     <display-octave>4</display-octave>
    </unpitched>
    <duration>4</duration>
    <instrument id="P2-I1"/>
    <voice>2</voice>
    <type>quarter</type>
    <stem>down</stem>
   </note>
   <backup>
    <duration>2</duration>
   </backup>
   <note>
    <unpitched>
     <display-step>F</display-step>
     <display-octave>5</display-octave>
    </unpitched>
    <duration>2</duration>
    <instrument id="P2-I6"/>
    <voice>1</voice>
    <type>eighth</type>
    <stem>up</stem>
    <notehead>x</notehead>
    <beam number="1">end</beam>
   </note>
   <note>
    <unpitched>
     <display-step>F</display-step>
     <display-octave>5</display-octave>
    </unpitched>
    <duration>2</duration>
    <instrument id="P2-I6"/>
    <voice>1</voice>
    <type>eighth</type>
    <stem>up</stem>
    <notehead>x</notehead>
    <beam number="1">begin</beam>
   </note>
   <backup>
    <duration>2</duration>
   </backup>
   <note>
    <unpitched>
     <display-step>C</display-step>
     <display-octave>5</display-octave>
    </unpitched>
    <duration>4</duration>
    <instrument id="P2-I3"/>
    <voice>2</voice>
    <type>quarter</type>
    <stem>down</stem>
   </note>
   <backup>
    <duration>2</duration>
   </backup>
   <note>
    <unpitched>
     <display-step>F</display-step>
     <display-octave>5</display-octave>
    </unpitched>
    <duration>2</duration>
    <instrument id="P2-I6"/>
    <voice>1</voice>
    <type>eighth</type>
    <stem>up</stem>
    <notehead>x</notehead>
    <beam number="1">end</beam>
   </note>
   <note>
    <unpitched>
     <display-step>F</display-step>
     <display-octave>5</display-octave>
    </unpitched>
    <duration>2</duration>
    <instrument id="P2-I6"/>
    <voice>1</voice>
    <type>eighth</type>
    <stem>up</stem>
    <notehead>x</notehead>
    <beam number="1">begin</beam>
   </note>
   <backup>
    <duration>2</duration>
   </backup>
   <note>
    <unpitched>
     <display-step>C</display-step>
     <display-octave>5</display-octave>
    </unpitched>
    <duration>2</duration>
    <instrument id="P2-I3"/>
    <voice>2</voice>
    <type>eighth</type>
    <stem>down</stem>
    <beam number="1">begin</beam>
   </note>
   <note>
    <unpitched>
     <display-step>F</display-step>
     <display-octave>5</display-octave>
    </unpitched>
    <duration>2</duration>
    <instrument id="P2-I6"/>
    <voice>1</voice>
    <type>eighth</type>
    <stem>up</stem>
    <notehead>x</notehead>
    <beam number="1">end</beam>
   </note>
   <backup>
    <duration>2</duration>
   </backup>
   <note>
    <unpitched>
     <display-step>C</display-step>
     <display-octave>5</display-octave>
    </unpitched>
    <duration>2</duration>
    <instrument id="P2-I3"/>
    <voice>2</voice>
    <type>eighth</type>
    <stem>down</stem>
    <beam number="1">end</beam>
   </note>
  </measure>
  <measure number="10">
   <note>
    <unpitched>
     <display-step>F</display-step>
     <display-octave>5</display-octave>
    </unpitched>
    <duration>2</duration>
    <instrument id="P2-I6"/>
    <voice>1</voice>
    <type>eighth</type>
    <stem>up</stem>
    <notehead>x</notehead>
    <beam number="1">begin</beam>
   </note>
   <backup>
    <duration>2</duration>
   </backup>
   <note>
    <unpitched>
     <display-step>F</display-step>
     <display-octave>4</display-octave>
    </unpitched>
    <duration>4</duration>
    <instrument id="P2-I1"/>
    <voice>2</voice>
    <type>quarter</type>
    <stem>down</stem>
   </note>
   <backup>
    <duration>2</duration>
   </backup>
   <note>
    <unpitched>
     <display-step>F</display-step>
     <display-octave>5</display-octave>
    </unpitched>
    <duration>2</duration>
    <instrument id="P2-I6"/>
    <voice>1</voice>
    <type>eighth</type>
    <stem>up</stem>
    <notehead>x</notehead>
    <beam number="1">end</beam>
   </note>
   <note>
    <unpitched>
     <display-step>F</display-step>
     <display-octave>5</display-octave>
    </unpitched>
    <duration>2</duration>
    <instrument id="P2-I6"/>
    <voice>1</voice>
    <type>eighth</type>
    <stem>up</stem>
    <notehead>x</notehead>
    <beam number="1">begin</beam>
   </note>
   <backup>
    <duration>2</duration>
   </backup>
   <note>
    <unpitched>
     <display-step>C</display-step>
     <display-octave>5</display-octave>
    </unpitched>
    <duration>6</duration>
    <instrument id="P2-I3"/>
    <voice>2</voice>
    <type>quarter</type>
    <dot/>
    <stem>down</stem>
   </note>
   <backup>
    <duration>4</duration>
   </backup>
   <note>
    <unpitched>
     <display-step>F</display-step>
     <display-octave>5</display-octave>
    </unpitched>
    <duration>2</duration>
    <instrument id="P2-I6"/>
    <voice>1</voice>
    <type>eighth</type>
    <stem>up</stem>
    <notehead>x</notehead>
    <beam number="1">end</beam>
   </note>
   <note>
    <unpitched>
     <display-step>F</display-step>
     <display-octave>5</display-octave>
    </unpitched>
    <duration>2</duration>
    <instrument id="P2-I6"/>
    <voice>1</voice>
    <type>eighth</type>
    <stem>up</stem>
    <notehead>x</notehead>
    <beam number="1">begin</beam>
   </note>
   <note>
    <unpitched>
     <display-step>F</display-step>
     <display-octave>5</display-octave>
    </unpitched>
    <duration>2</duration>
    <instrument id="P2-I6"/>
    <voice>1</voice>
    <type>eighth</type>
    <stem>up</stem>
    <notehead>x</notehead>
    <beam number="1">end</beam>
   </note>
   <backup>
    <duration>2</duration>
   </backup>
   <note>
    <unpitched>
     <display-step>C</display-step>
     <display-octave>5</display-octave>
    </unpitched>
    <duration>2</duration>
    <instrument id="P2-I3"/>
    <voice>2</voice>
    <type>eighth</type>
    <stem>down</stem>
   </note>
  </measure>
  <measure number="11">
   <print new-system="yes"/>
   <note>
    <unpitched>
     <display-step>F</display-step>
     <display-octave>5</display-octave>
    </unpitched>
    <duration>2</duration>
    <instrument id="P2-I6"/>
    <voice>1</voice>
    <type>eighth</type>
    <stem>up</stem>
    <notehead>x</notehead>
    <beam number="1">begin</beam>
   </note>
   <backup>
    <duration>2</duration>
   </backup>
   <note>
    <unpitched>
     <display-step>F</display-step>
     <display-octave>4</display-octave>
    </unpitched>
    <duration>4</duration>
    <instrument id="P2-I1"/>
    <voice>2</voice>
    <type>quarter</type>
    <stem>down</stem>
   </note>
   <backup>
    <duration>2</duration>
   </backup>
   <note>
    <unpitched>
     <display-step>F</display-step>
     <display-octave>5</display-octave>
    </unpitched>
    <duration>2</duration>
    <instrument id="P2-I6"/>
    <voice>1</voice>
    <type>eighth</type>
    <stem>up</stem>
    <notehead>x</notehead>
    <beam number="1">end</beam>
   </note>
   <note>
    <unpitched>
     <display-step>F</display-step>
     <display-octave>5</display-octave>
    </unpitched>
    <duration>2</duration>
    <instrument id="P2-I6"/>
    <voice>1</voice>
    <type>eighth</type>
    <stem>up</stem>
    <notehead>x</notehead>
    <beam number="1">begin</beam>
   </note>
   <backup>
    <duration>2</duration>
   </backup>
   <note>
    <unpitched>
     <display-step>C</display-step>
     <display-octave>5</display-octave>
    </unpitched>
    <duration>4</duration>
    <instrument id="P2-I3"/>
    <voice>2</voice>
    <type>quarter</type>
    <stem>down</stem>
   </note>
   <backup>
    <duration>2</duration>
   </backup>
   <note>
    <unpitched>
     <display-step>F</display-step>
     <display-octave>5</display-octave>
    </unpitched>
    <duration>2</duration>
    <instrument id="P2-I6"/>
    <voice>1</voice>
    <type>eighth</type>
    <stem>up</stem>
    <notehead>x</notehead>
    <beam number="1">end</beam>
   </note>
   <note>
    <unpitched>
     <display-step>F</display-step>
     <display-octave>5</display-octave>
    </unpitched>
    <duration>2</duration>
    <instrument id="P2-I6"/>
    <voice>1</voice>
    <type>eighth</type>
    <stem>up</stem>
    <notehead>x</notehead>
    <beam number="1">begin</beam>
   </note>
   <backup>
    <duration>2</duration>
   </backup>
   <note>
    <unpitched>
     <display-step>C</display-step>
     <display-octave>5</display-octave>
    </unpitched>
    <duration>4</duration>
    <instrument id="P2-I3"/>
    <voice>2</voice>
    <type>quarter</type>
    <stem>down</stem>
   </note>
   <backup>
    <duration>2</duration>
   </backup>
   <note>
    <unpitched>
     <display-step>F</display-step>
     <display-octave>5</display-octave>
    </unpitched>
    <duration>2</duration>
    <instrument id="P2-I6"/>
    <voice>1</voice>
    <type>eighth</type>
    <stem>up</stem>
    <notehead>x</notehead>
    <beam number="1">end</beam>
   </note>
  </measure>
  <measure number="12">
   <note>
    <unpitched>
     <display-step>F</display-step>
     <display-octave>5</display-octave>
    </unpitched>
    <duration>2</duration>
    <instrument id="P2-I6"/>
    <voice>1</voice>
    <type>eighth</type>
    <stem>up</stem>
    <notehead>x</notehead>
    <beam number="1">begin</beam>
   </note>
   <backup>
    <duration>2</duration>
   </backup>
   <note>
    <unpitched>
     <display-step>F</display-step>
     <display-octave>4</display-octave>
    </unpitched>
    <duration>4</duration>
    <instrument id="P2-I1"/>
    <voice>2</voice>
    <type>quarter</type>
    <stem>down</stem>
   </note>
   <backup>
    <duration>2</duration>
   </backup>
   <note>
    <unpitched>
     <display-step>F</display-step>
     <display-octave>5</display-octave>
    </unpitched>
    <duration>2</duration>
    <instrument id="P2-I6"/>
    <voice>1</voice>
    <type>eighth</type>
    <stem>up</stem>
    <notehead>x</notehead>
    <beam number="1">end</beam>
   </note>
   <note>
    <unpitched>
     <display-step>F</display-step>
     <display-octave>5</display-octave>
    </unpitched>
    <duration>2</duration>
    <instrument id="P2-I6"/>
    <voice>1</voice>
    <type>eighth</type>
    <stem>up</stem>
    <notehead>x</notehead>
    <beam number="1">begin</beam>
   </note>
   <backup>
    <duration>2</duration>
   </backup>
   <note>
    <unpitched>
     <display-step>C</display-step>
     <display-octave>5</display-octave>
    </unpitched>
    <duration>6</duration>
    <instrument id="P2-I3"/>
    <voice>2</voice>
    <type>quarter</type>
    <dot/>
    <stem>down</stem>
   </note>
   <backup>
    <duration>4</duration>
   </backup>
   <note>
    <unpitched>
     <display-step>F</display-step>
     <display-octave>5</display-octave>
    </unpitched>
    <duration>2</duration>
    <instrument id="P2-I6"/>
    <voice>1</voice>
    <type>eighth</type>
    <stem>up</stem>
    <notehead>x</notehead>
    <beam number="1">end</beam>
   </note>
   <note>
    <unpitched>
     <display-step>F</display-step>
     <display-octave>5</display-octave>
    </unpitched>
    <duration>2</duration>
    <instrument id="P2-I6"/>
    <voice>1</voice>
    <type>eighth</type>
    <stem>up</stem>
    <notehead>x</notehead>
    <beam number="1">begin</beam>
   </note>
   <note>
    <unpitched>
     <display-step>F</display-step>
     <display-octave>5</display-octave>
    </unpitched>
    <duration>2</duration>
    <instrument id="P2-I6"/>
    <voice>1</voice>
    <type>eighth</type>
    <stem>up</stem>
    <notehead>x</notehead>
    <beam number="1">end</beam>
   </note>
   <backup>
    <duration>2</duration>
   </backup>
   <note>
    <unpitched>
     <display-step>C</display-step>
     <display-octave>5</display-octave>
    </unpitched>
    <duration>2</duration>
    <instrument id="P2-I3"/>
    <voice>2</voice>
    <type>eighth</type>
    <stem>down</stem>
   </note>
   <barline location="right">
    <bar-style>light-heavy</bar-style>
    <repeat direction="backward"/>
   </barline>
  </measure>
  <measure number="13">
   <note>
    <unpitched>
     <display-step>A</display-step>
     <display-octave>5</display-octave>
    </unpitched>
    <duration>4</duration>
    <instrument id="P2-I7"/>
    <voice>1</voice>
    <type>quarter</type>
    <stem>up</stem>
    <notehead>x</notehead>
   </note>
   <backup>
    <duration>4</duration>
   </backup>
   <note>
    <unpitched>
     <display-step>C</display-step>
     <display-octave>5</display-octave>
    </unpitched>
    <duration>4</duration>
    <instrument id="P2-I3"/>
    <voice>2</voice>
    <type>quarter</type>
    <stem>down</stem>
   </note>
   <note>
    <rest/>
    <duration>4</duration>
    <voice>2</voice>
    <type>quarter</type>
   </note>
   <note>
    <rest/>
    <duration>4</duration>
    <voice>2</voice>
    <type>quarter</type>
   </note>
   <barline location="right">
    <bar-style>light-heavy</bar-style>
   </barline>
  </measure>
 </part>
</score-partwise>
